<svg width="200" height="200" viewBox="0 0 200 200" xmlns="http://www.w3.org/2000/svg">
  <!-- Raptor Silhouette -->
  <g id="raptor">
    <!-- Queue -->
    <path d="M 130 140 Q 160 145 180 160" stroke="#228B22" stroke-width="20" fill="none" stroke-linecap="round"/>
    <!-- Corps -->
    <ellipse cx="100" cy="130" rx="40" ry="35" fill="#228B22"/>
    <!-- Tête -->
    <ellipse cx="85" cy="90" rx="30" ry="25" fill="#2E7D32" transform="rotate(-15 85 90)"/>
    <!-- Mâchoire -->
    <path d="M 55 85 L 45 95 L 60 100 Z" fill="#2E7D32"/>
    <!-- Dents -->
    <path d="M 50 90 L 52 86 L 54 90" fill="white"/>
    <path d="M 56 91 L 58 87 L 60 91" fill="white"/>
    <!-- Œil -->
    <circle cx="75" cy="85" r="5" fill="#FFD700"/>
    <circle cx="75" cy="85" r="3" fill="#000"/>
    <!-- Pattes arrière -->
    <rect x="85" y="150" width="15" height="30" rx="7" fill="#1B5E20"/>
    <rect x="105" y="150" width="15" height="30" rx="7" fill="#1B5E20"/>
    <!-- Griffes -->
    <path d="M 87 178 L 85 185 L 87 182 L 89 185 L 87 178" fill="#FFF"/>
    <path d="M 107 178 L 105 185 L 107 182 L 109 185 L 107 178" fill="#FFF"/>
    <!-- Bras (petits) -->
    <ellipse cx="70" cy="120" rx="8" ry="15" fill="#228B22" transform="rotate(-30 70 120)"/>
    <ellipse cx="90" cy="115" rx="8" ry="15" fill="#228B22" transform="rotate(10 90 115)"/>
  </g>
</svg>